<svg width="286" height="31" viewBox="0 0 286 31" fill="none" xmlns="http://www.w3.org/2000/svg">
<path d="M283.407 6.98595C282.19 4.85961 280.439 3.09448 278.332 1.86813C276.224 0.641781 273.834 -0.00253237 271.401 7.47996e-06L271.416 13.9854L283.407 6.98595Z" fill="url(#paint0_linear)"/>
<path d="M258.304 6.98488C259.522 4.85864 261.272 3.09367 263.38 1.86751C265.487 0.64135 267.878 -0.00274909 270.31 8.81949e-06L270.294 13.9854L258.304 6.98488Z" fill="url(#paint1_linear)"/>
<path d="M283.407 22.6144C282.189 24.74 280.438 26.5041 278.33 27.7293C276.223 28.9544 273.833 29.5973 271.401 29.5933L271.424 15.6079L283.407 22.6144Z" fill="url(#paint2_linear)"/>
<path d="M283.745 7.74777C284.958 9.87463 285.595 12.2869 285.593 14.742C285.591 17.1971 284.95 19.6083 283.734 21.7331L271.769 14.7305L283.745 7.74777Z" fill="url(#paint3_linear)"/>
<path d="M257.848 21.9244C256.635 19.7975 255.998 17.3852 256 14.9301C256.002 12.4751 256.643 10.0638 257.859 7.939L269.825 14.9416L257.848 21.9244Z" fill="url(#paint4_linear)"/>
<path d="M270.31 29.5933C267.879 29.5992 265.49 28.9583 263.383 27.7349C261.275 26.5115 259.524 24.7489 258.304 22.6243L270.276 15.6079L270.31 29.5933Z" fill="url(#paint5_linear)"/>
<path d="M230.407 6.98595C229.19 4.85961 227.439 3.09448 225.332 1.86813C223.224 0.641781 220.834 -0.00253237 218.401 7.47996e-06L218.416 13.9854L230.407 6.98595Z" fill="url(#paint6_linear)"/>
<path d="M230.407 22.6144C229.189 24.74 227.438 26.5041 225.33 27.7293C223.223 28.9544 220.833 29.5973 218.401 29.5933L218.424 15.6079L230.407 22.6144Z" fill="url(#paint7_linear)"/>
<path d="M230.746 7.74777C231.958 9.87463 232.596 12.2869 232.594 14.742C232.592 17.1971 231.95 19.6083 230.734 21.7331L218.769 14.7305L230.746 7.74777Z" fill="url(#paint8_linear)"/>
<path d="M204.848 21.9244C203.635 19.7975 202.998 17.3852 203 14.9301C203.002 12.4751 203.643 10.0638 204.859 7.939L216.825 14.9416L204.848 21.9244Z" fill="url(#paint9_linear)"/>
<path d="M217.31 29.5933C214.879 29.5992 212.49 28.9583 210.383 27.7349C208.275 26.5115 206.524 24.7489 205.304 22.6243L217.276 15.6079L217.31 29.5933Z" fill="url(#paint10_linear)"/>
<path d="M172.103 6.98595C170.886 4.85961 169.135 3.09448 167.028 1.86813C164.92 0.641781 162.53 -0.00253237 160.098 7.47996e-06L160.112 13.9854L172.103 6.98595Z" fill="url(#paint11_linear)"/>
<path d="M172.103 22.6144C170.885 24.74 169.134 26.5041 167.027 27.7293C164.919 28.9544 162.529 29.5973 160.098 29.5933L160.12 15.6079L172.103 22.6144Z" fill="url(#paint12_linear)"/>
<path d="M172.441 7.74777C173.654 9.87463 174.291 12.2869 174.289 14.742C174.287 17.1971 173.646 19.6083 172.43 21.7331L160.464 14.7305L172.441 7.74777Z" fill="url(#paint13_linear)"/>
<path d="M159.006 29.5933C156.575 29.5992 154.186 28.9583 152.078 27.7349C149.971 26.5115 148.219 24.7489 147 22.6243L158.972 15.6079L159.006 29.5933Z" fill="url(#paint14_linear)"/>
<path d="M119.006 7.98595C117.788 5.85961 116.038 4.09448 113.93 2.86813C111.823 1.64178 109.432 0.997468 107 1.00001L107.014 14.9854L119.006 7.98595Z" fill="url(#paint15_linear)"/>
<path d="M119.006 23.6144C117.787 25.74 116.037 27.5041 113.929 28.7293C111.821 29.9544 109.432 30.5973 107 30.5933L107.022 16.6079L119.006 23.6144Z" fill="url(#paint16_linear)"/>
<path d="M119.343 8.74777C120.556 10.8746 121.193 13.2869 121.191 15.742C121.189 18.1971 120.548 20.6083 119.332 22.7331L107.367 15.7305L119.343 8.74777Z" fill="url(#paint17_linear)"/>
<path d="M67.0057 6.98595C65.7883 4.85961 64.0378 3.09448 61.9302 1.86813C59.8227 0.641781 57.4325 -0.00253237 55 7.47996e-06L55.0143 13.9854L67.0057 6.98595Z" fill="url(#paint18_linear)"/>
<path d="M67.3433 7.74777C68.556 9.87463 69.1934 12.2869 69.1914 14.742C69.1894 17.1971 68.5481 19.6083 67.332 21.7331L55.3667 14.7305L67.3433 7.74777Z" fill="url(#paint19_linear)"/>
<path d="M12.0057 6.98595C10.7883 4.85961 9.03777 3.09448 6.93023 1.86813C4.82269 0.641781 2.43246 -0.00253237 0 7.47996e-06L0.0143233 13.9854L12.0057 6.98595Z" fill="url(#paint20_linear)"/>
<line x1="240.837" y1="15.2239" x2="247.337" y2="15.2239" stroke="black" stroke-width="1.5" stroke-linecap="round"/>
<line x1="185.995" y1="14.2369" x2="192.495" y2="14.2369" stroke="black" stroke-width="1.5" stroke-linecap="round"/>
<line x1="133.02" y1="14.4012" x2="139.52" y2="14.4012" stroke="black" stroke-width="1.5" stroke-linecap="round"/>
<line x1="79.1104" y1="15.2239" x2="85.6104" y2="15.2239" stroke="black" stroke-width="1.5" stroke-linecap="round"/>
<line x1="25.2017" y1="15.2239" x2="31.7017" y2="15.2239" stroke="black" stroke-width="1.5" stroke-linecap="round"/>
<defs>
<linearGradient id="paint0_linear" x1="281.602" y1="10.7304" x2="271.224" y2="0.100504" gradientUnits="userSpaceOnUse">
<stop stop-color="#39CDA2"/>
<stop offset="1" stop-color="#AAEEDB"/>
</linearGradient>
<linearGradient id="paint1_linear" x1="270.267" y1="6.68682" x2="260.873" y2="0.871716" gradientUnits="userSpaceOnUse">
<stop stop-color="#FFC444"/>
<stop offset="1" stop-color="#FFE9C1"/>
</linearGradient>
<linearGradient id="paint2_linear" x1="278.5" y1="19.8915" x2="270.333" y2="22.2435" gradientUnits="userSpaceOnUse">
<stop stop-color="#A546D0"/>
<stop offset="1" stop-color="#8333D4"/>
</linearGradient>
<linearGradient id="paint3_linear" x1="278.681" y1="7.74777" x2="278.681" y2="21.7331" gradientUnits="userSpaceOnUse">
<stop stop-color="#21AB83"/>
<stop offset="1" stop-color="#198062"/>
</linearGradient>
<linearGradient id="paint4_linear" x1="257.676" y1="7.93167" x2="265.018" y2="17.1946" gradientUnits="userSpaceOnUse">
<stop stop-color="#FFCA8C"/>
<stop offset="1" stop-color="#FF8900"/>
</linearGradient>
<linearGradient id="paint5_linear" x1="264.307" y1="15.6079" x2="264.307" y2="29.5933" gradientUnits="userSpaceOnUse">
<stop stop-color="#F792F5"/>
<stop offset="1" stop-color="#D55AD2"/>
</linearGradient>
<linearGradient id="paint6_linear" x1="228.602" y1="10.7304" x2="218.224" y2="0.100504" gradientUnits="userSpaceOnUse">
<stop stop-color="#39CDA2"/>
<stop offset="1" stop-color="#AAEEDB"/>
</linearGradient>
<linearGradient id="paint7_linear" x1="225.5" y1="19.8915" x2="217.333" y2="22.2435" gradientUnits="userSpaceOnUse">
<stop stop-color="#A546D0"/>
<stop offset="1" stop-color="#8333D4"/>
</linearGradient>
<linearGradient id="paint8_linear" x1="225.681" y1="7.74777" x2="225.681" y2="21.7331" gradientUnits="userSpaceOnUse">
<stop stop-color="#21AB83"/>
<stop offset="1" stop-color="#198062"/>
</linearGradient>
<linearGradient id="paint9_linear" x1="204.676" y1="7.93167" x2="212.018" y2="17.1946" gradientUnits="userSpaceOnUse">
<stop stop-color="#FFCA8C"/>
<stop offset="1" stop-color="#FF8900"/>
</linearGradient>
<linearGradient id="paint10_linear" x1="211.307" y1="15.6079" x2="211.307" y2="29.5933" gradientUnits="userSpaceOnUse">
<stop stop-color="#F792F5"/>
<stop offset="1" stop-color="#D55AD2"/>
</linearGradient>
<linearGradient id="paint11_linear" x1="170.298" y1="10.7304" x2="159.92" y2="0.100504" gradientUnits="userSpaceOnUse">
<stop stop-color="#39CDA2"/>
<stop offset="1" stop-color="#AAEEDB"/>
</linearGradient>
<linearGradient id="paint12_linear" x1="167.197" y1="19.8915" x2="159.03" y2="22.2435" gradientUnits="userSpaceOnUse">
<stop stop-color="#A546D0"/>
<stop offset="1" stop-color="#8333D4"/>
</linearGradient>
<linearGradient id="paint13_linear" x1="167.377" y1="7.74777" x2="167.377" y2="21.7331" gradientUnits="userSpaceOnUse">
<stop stop-color="#21AB83"/>
<stop offset="1" stop-color="#198062"/>
</linearGradient>
<linearGradient id="paint14_linear" x1="153.003" y1="15.6079" x2="153.003" y2="29.5933" gradientUnits="userSpaceOnUse">
<stop stop-color="#F792F5"/>
<stop offset="1" stop-color="#D55AD2"/>
</linearGradient>
<linearGradient id="paint15_linear" x1="117.201" y1="11.7304" x2="106.823" y2="1.1005" gradientUnits="userSpaceOnUse">
<stop stop-color="#39CDA2"/>
<stop offset="1" stop-color="#AAEEDB"/>
</linearGradient>
<linearGradient id="paint16_linear" x1="114.099" y1="20.8915" x2="105.932" y2="23.2435" gradientUnits="userSpaceOnUse">
<stop stop-color="#A546D0"/>
<stop offset="1" stop-color="#8333D4"/>
</linearGradient>
<linearGradient id="paint17_linear" x1="114.279" y1="8.74777" x2="114.279" y2="22.7331" gradientUnits="userSpaceOnUse">
<stop stop-color="#21AB83"/>
<stop offset="1" stop-color="#198062"/>
</linearGradient>
<linearGradient id="paint18_linear" x1="65.2006" y1="10.7304" x2="54.8226" y2="0.100504" gradientUnits="userSpaceOnUse">
<stop stop-color="#39CDA2"/>
<stop offset="1" stop-color="#AAEEDB"/>
</linearGradient>
<linearGradient id="paint19_linear" x1="62.2791" y1="7.74777" x2="62.2791" y2="21.7331" gradientUnits="userSpaceOnUse">
<stop stop-color="#21AB83"/>
<stop offset="1" stop-color="#198062"/>
</linearGradient>
<linearGradient id="paint20_linear" x1="10.2006" y1="10.7304" x2="-0.177437" y2="0.100504" gradientUnits="userSpaceOnUse">
<stop stop-color="#39CDA2"/>
<stop offset="1" stop-color="#AAEEDB"/>
</linearGradient>
</defs>
</svg>
